<svg width="100" height="101" viewBox="0 0 100 101" fill="none" xmlns="http://www.w3.org/2000/svg">
<rect width="100" height="100" rx="7" fill="#1B4185"/>
<path d="M64.6921 71.07H61.8871L59.3371 68.35L58.3171 65.63C58.2604 65.5167 58.2321 65.375 58.2321 65.205C58.2321 65.035 58.2037 64.8367 58.1471 64.61C58.0904 64.27 58.0054 63.8733 57.8921 63.42C57.8354 62.91 57.7504 62.2867 57.6371 61.55C57.0704 58.83 56.6171 57.8383 56.2771 58.575C55.1437 60.955 54.0104 62.91 52.8771 64.44C51.7437 65.9133 50.9504 67.075 50.4971 67.925L49.9021 69.455L48.1171 73.28L39.1071 73.365L38.0021 73.875L34.8571 72.26C34.6304 71.6933 34.3754 71.0417 34.0921 70.305C33.8654 69.5683 33.6104 68.7467 33.3271 67.84C33.2137 67.5567 32.9871 67.3017 32.6471 67.075C32.3071 66.7917 31.9671 66.5367 31.6271 66.31C31.3437 66.0267 31.1171 65.7433 30.9471 65.46C30.7771 65.1767 30.7771 64.865 30.9471 64.525C31.1737 64.185 31.1737 63.845 30.9471 63.505C30.7771 63.1083 30.5221 62.7117 30.1821 62.315C29.8987 61.9183 29.6154 61.5783 29.3321 61.295C29.1054 60.955 29.0487 60.7 29.1621 60.53C29.8421 59.51 30.2104 58.6883 30.2671 58.065C30.3804 57.385 30.3237 56.79 30.0971 56.28C29.9271 55.8833 29.7287 55.6283 29.5021 55.515C29.2754 55.4017 29.0487 55.345 28.8221 55.345C28.5954 55.345 28.3687 55.345 28.1421 55.345C27.9721 55.2883 27.8304 55.1467 27.7171 54.92C27.4337 54.3533 27.2921 53.815 27.2921 53.305C27.2921 52.7383 27.2354 52.4267 27.1221 52.37C26.8387 52.2567 26.5271 52.2 26.1871 52.2C25.8471 52.1433 25.3654 51.9167 24.7421 51.52C23.6654 46.7033 21.7954 41.915 19.1321 37.155C18.2254 35.3417 17.5454 33.6417 17.0921 32.055C16.6387 30.4117 16.0437 29.25 15.3071 28.57V24.83C15.8171 24.49 16.3554 24.2633 16.9221 24.15C17.9987 23.98 18.7921 23.47 19.3021 22.62L22.5321 22.45C22.7587 22.6767 23.1554 22.79 23.7221 22.79C24.3454 22.79 24.9687 22.7617 25.5921 22.705C26.2154 22.6483 26.7821 22.5917 27.2921 22.535C27.8021 22.4783 28.1137 22.535 28.2271 22.705C29.2471 23.895 30.4371 24.83 31.7971 25.51C31.7404 25.85 31.9387 26.7283 32.3921 28.145C32.8454 29.505 33.4404 31.1767 34.1771 33.16C34.9137 35.0867 35.7354 37.155 36.6421 39.365C37.5487 41.575 38.3704 43.7283 39.1071 45.825C39.9004 47.865 40.5521 49.7067 41.0621 51.35C41.6287 52.9367 41.9404 54.07 41.9971 54.75C44.0937 58.49 45.3971 60.4733 45.9071 60.7C46.7571 60.9833 47.6071 60.7283 48.4571 59.935C49.3071 59.085 49.6754 57.5833 49.5621 55.43C49.4487 53.3333 49.7037 51.6617 50.3271 50.415C50.9504 49.1117 51.4321 48.0633 51.7721 47.27C51.4887 46.93 51.2904 46.5617 51.1771 46.165C51.0637 45.7117 50.9504 45.2867 50.8371 44.89C50.7804 44.4933 50.6954 44.1817 50.5821 43.955C50.4687 43.6717 50.2704 43.53 49.9871 43.53C50.0437 43.4733 50.0721 43.4167 50.0721 43.36C50.0721 43.3033 50.1004 43.2183 50.1571 43.105C50.2137 42.9917 50.2704 42.8217 50.3271 42.595C50.3837 42.3683 50.4121 42.1133 50.4121 41.83C50.4121 41.7167 50.2421 40.7533 49.9021 38.94C49.8454 38.4867 49.7887 37.9483 49.7321 37.325C49.6754 36.645 49.6187 35.965 49.5621 35.285C49.5621 34.605 49.5337 34.01 49.4771 33.5C49.4771 32.9333 49.4771 32.5083 49.4771 32.225C49.0237 31.4317 48.7121 30.5533 48.5421 29.59C48.3721 28.6267 47.9187 27.7483 47.1821 26.955C47.0687 26.785 47.0121 26.5017 47.0121 26.105C47.0121 25.7083 47.0404 25.3117 47.0971 24.915C47.1537 24.5183 47.2387 24.0083 47.3521 23.385L50.4121 22.96L51.0071 22.365C51.3471 22.025 51.8854 21.7983 52.6221 21.685C53.0187 21.685 53.6137 21.6567 54.4071 21.6C55.2004 21.5433 55.9937 21.515 56.7871 21.515C57.6371 21.515 58.3737 21.6 58.9971 21.77C59.6771 21.94 60.0737 22.2233 60.1871 22.62C60.2437 22.9033 60.7537 23.0733 61.7171 23.13C62.0004 24.6033 62.3121 26.275 62.6521 28.145C62.9921 30.015 63.3037 31.9133 63.5871 33.84C63.8704 35.71 64.0687 37.5233 64.1821 39.28C64.3521 41.0367 64.4087 42.595 64.3521 43.955C64.6354 44.1817 64.6921 44.4083 64.5221 44.635C64.4087 44.8617 64.3804 45.2867 64.4371 45.91C64.6637 46.25 64.8337 46.7033 64.9471 47.27C65.1171 47.78 65.2021 48.1767 65.2021 48.46C65.2021 48.6867 65.1454 49.055 65.0321 49.565C64.9754 50.075 64.7771 50.7833 64.4371 51.69C64.2104 51.6333 63.8987 51.69 63.5021 51.86C63.1621 52.03 62.8221 52.285 62.4821 52.625C62.1987 52.9083 61.9437 53.2483 61.7171 53.645C61.5471 53.985 61.5187 54.325 61.6321 54.665C62.0287 55.2883 62.6521 55.77 63.5021 56.11C64.4087 56.3933 65.2587 56.4783 66.0521 56.365C66.6754 56.535 67.2137 56.535 67.6671 56.365C68.1204 56.1383 68.4887 55.6567 68.7721 54.92L73.7021 45.825L73.5321 42.68L79.6521 28.06L82.8821 23.555H87.2171L88.0671 24.575L88.8321 27.635L84.6671 36.815L81.4371 44.04L77.3571 51.435L70.9821 62.315L68.0071 66.99V68.69L64.6921 71.07Z" fill="white"/>
</svg>
