<?xml version="1.0" standalone="no"?><!DOCTYPE svg PUBLIC "-//W3C//DTD SVG 1.1//EN" "http://www.w3.org/Graphics/SVG/1.1/DTD/svg11.dtd"><svg t="1697698715286" class="icon" viewBox="0 0 1024 1024" version="1.1" xmlns="http://www.w3.org/2000/svg" p-id="5262" xmlns:xlink="http://www.w3.org/1999/xlink" width="128" height="128"><path d="M886.976 387.904l-362.666667-256a21.354667 21.354667 0 0 0-24.618666 0l-362.666667 256A21.376 21.376 0 0 0 128 405.333333v469.333334a21.333333 21.333333 0 0 0 21.333333 21.333333h234.666667a21.333333 21.333333 0 0 0 21.333333-21.333333V618.666667h213.333334v256a21.333333 21.333333 0 0 0 21.333333 21.333333h234.666667a21.333333 21.333333 0 0 0 21.333333-21.333333V405.333333a21.376 21.376 0 0 0-9.024-17.429333z" fill="#2c2c2c" p-id="5263"></path></svg>